<svg viewBox="0 0 128 128" xmlns="http://www.w3.org/2000/svg"><path d="m120 56a8 8 0 0 0 -7.74 6h-10.26a37.86 37.86 0 0 0 -9.72-23.4l7.31-7.31a8 8 0 1 0 -2.83-2.83l-7.36 7.31a37.86 37.86 0 0 0 -23.4-9.72v-10.31a8 8 0 1 0 -4 0v10.31a37.86 37.86 0 0 0 -23.4 9.72l-7.31-7.31a8 8 0 1 0 -2.83 2.83l7.31 7.31a37.86 37.86 0 0 0 -9.72 23.4h-10.31a8 8 0 1 0 0 4h10.31a37.86 37.86 0 0 0 9.72 23.4l-7.31 7.31a8 8 0 1 0 2.83 2.83l7.31-7.31a37.86 37.86 0 0 0 23.4 9.77v10.31a8 8 0 1 0 4 0v-10.31a37.86 37.86 0 0 0 23.4-9.72l7.31 7.31a8 8 0 1 0 2.83-2.83l-7.31-7.36a37.86 37.86 0 0 0 9.77-23.4h10.31a8 8 0 1 0 7.69-10zm-19.23-34.43a4 4 0 1 1 -1.17 2.83 4 4 0 0 1 1.17-2.83zm-40.77-13.57a4 4 0 1 1 4 4 4 4 0 0 1 -4-4zm-38.43 19.23a4 4 0 0 1 5.66-5.66 4 4 0 0 1 -5.66 5.66zm-13.57 40.77a4 4 0 1 1 4-4 4 4 0 0 1 -4 4zm19.23 38.43a4 4 0 0 1 -5.66-5.66 4 4 0 0 1 5.66 5.66zm40.77 13.57a4 4 0 1 1 -4-4 4 4 0 0 1 4 4zm38.43-19.23a4 4 0 0 1 -5.66 5.66 4 4 0 0 1 5.66-5.66zm-42.43-2.77a34 34 0 1 1 34-34 34 34 0 0 1 -34 34zm56-30a4 4 0 1 1 4-4 4 4 0 0 1 -4 4z"/><path d="m40.34 58.34a8 8 0 1 0 11.32 0 8 8 0 0 0 -11.32 0zm8.49 8.49a4 4 0 1 1 0-5.66 4 4 0 0 1 0 5.66z"/><path d="m58.34 40.34a8 8 0 1 0 11.32 0 8 8 0 0 0 -11.32 0zm8.49 8.49a4 4 0 1 1 0-5.66 4 4 0 0 1 0 5.66z"/><path d="m76.34 58.34a8 8 0 1 0 11.32 0 8 8 0 0 0 -11.32 0zm8.49 8.49a4 4 0 1 1 0-5.66 4 4 0 0 1 0 5.66z"/><path d="m58.34 76.34a8 8 0 1 0 11.32 0 8 8 0 0 0 -11.32 0zm8.49 8.49a4 4 0 1 1 0-5.66 4 4 0 0 1 0 5.66z"/></svg>