<svg height="18" viewBox="0 0 18 18" width="18" xmlns="http://www.w3.org/2000/svg"><path d="m2.93912168 7.71519441c-.60986774 0-1.10217063.49230288-1.10217063 1.10217063 0 .60986774.49230289 1.10217064 1.10217063 1.10217064.60986775 0 1.10217063-.4923029 1.10217063-1.10217064 0-.60986775-.49230288-1.10217063-1.10217063-1.10217063zm0-4.40868251c-.60986774 0-1.10217063.49230288-1.10217063 1.10217062 0 .60986775.49230289 1.10217063 1.10217063 1.10217063.60986775 0 1.10217063-.49230288 1.10217063-1.10217063 0-.60986774-.49230288-1.10217062-1.10217063-1.10217062zm0 8.9422777c-.54373751 0-.97725796.4408683-.97725796.9772579 0 .5363897.44086825.977258.97725796.977258s.97725796-.4408683.97725796-.977258c0-.5363896-.43352045-.9772579-.97725796-.9772579zm2.20434126 1.7120384h10.28692586v-1.4695608h-10.28692586zm0-4.40868254h10.28692586v-1.46956084h-10.28692586zm0-5.87824336v1.46956084h10.28692586v-1.46956084z" fill-rule="evenodd"/></svg>