<svg height="28" viewBox="0 0 28 28" width="28" xmlns="http://www.w3.org/2000/svg"><path d="m18.6666667 12.8333333c1.9366666 0 3.4883333-1.5633333 3.4883333-3.49999997 0-1.93666666-1.5516667-3.5-3.4883333-3.5-1.9366667 0-3.5 1.56333334-3.5 3.5 0 1.93666667 1.5633333 3.49999997 3.5 3.49999997zm-9.33333337 0c1.93666667 0 3.48833337-1.5633333 3.48833337-3.49999997 0-1.93666666-1.5516667-3.5-3.48833337-3.5-1.93666666 0-3.5 1.56333334-3.5 3.5 0 1.93666667 1.56333334 3.49999997 3.5 3.49999997zm0 2.3333334c-2.71833333 0-8.16666666 1.365-8.16666666 4.0833333v2.9166667h16.33333333v-2.9166667c0-2.7183333-5.4483333-4.0833333-8.16666667-4.0833333zm9.33333337 0c-.3383334 0-.7233334.0233333-1.1316667.0583333 1.3533333.98 2.2983333 2.2983333 2.2983333 4.025v2.9166667h7v-2.9166667c0-2.7183333-5.4483333-4.0833333-8.1666666-4.0833333z" fill-rule="evenodd"/></svg>